# xmcd
#
# Track frame offsets: 
#        150
#        10813
#        21082
#        30983
#        41524
#        51300
#        63322
#        75832
#        87069
#        97554
#        107205
#        117336
#        127764
#        141464
#        152910
#        164214
#        176283
#        186803
#        199598
#        216355
#
# Disc length: 3100 seconds
#
# Revision: 0
# Processed by: cddbd v1.5.2PL0 Copyright (c) Steve Scherf et al.
# Submitted via: ExactAudioCopy v1.3
#
DISCID=fd0c1a14
DTITLE=Don Bryant - The Hi Records single collection
DYEAR=2013
DGENRE=Soul
TTITLE0=Love's Gonna Live Here Again
TTITLE1=Been So Long
TTITLE2=Please Don't Leave
TTITLE3=Everytime I Think About You I Get The Blues
TTITLE4=I Will Be True
TTITLE5=It's So Hard To Put You Down (Version 1)
TTITLE6=It's So Hard To Put You Down (Version 2)
TTITLE7=Did You Ever Have The Blues
TTITLE8=With Your Hand In My Hand
TTITLE9=Run To Me
TTITLE10=It Ain't Easy
TTITLE11=Coming On Strong (Stereo Re-Mix)
TTITLE12=Clear Days And Stormy Nights
TTITLE13=Sure Looks Good To Me
TTITLE14=Walkie Talkie Love
TTITLE15=I Stuck By You
TTITLE16=Hurt No Longer
TTITLE17=Sure Is Good
TTITLE18=Mon Belle Amour ft.Ann Peebles
TTITLE19=Waiting ft.Ann Peebles
EXTD=
EXTT0=
EXTT1=
EXTT2=
EXTT3=
EXTT4=
EXTT5=
EXTT6=
EXTT7=
EXTT8=
EXTT9=
EXTT10=
EXTT11=
EXTT12=
EXTT13=
EXTT14=
EXTT15=
EXTT16=
EXTT17=
EXTT18=
EXTT19=
PLAYORDER=
